<svg class="icon" viewBox="0 0 1024 1024" xmlns="http://www.w3.org/2000/svg" width="200" height="200"><path d="M740.545 888.94c-.595-2.984-36.835-185.047-37.233-186.918-4.353-21.074-16.145-37.217-33.454-47.617-10.375-6.26-16.266-7.256-22.995-9.324l-123.58-43.191a18.048 18.048 0 0 1-12.193-17.071v-37.842c-47.334 23.668-96.97 22.173-141.028.672v37.17a18.045 18.045 0 0 1-12.193 17.07l-50.801 17.42h-.048l.005.01-.005.008-72.68 25.754-9.56 2.821c-17.29 6.448-32.284 18.694-40.685 35.818-5.816 11.796-4.09 7.653-32.311 149.319-10.45 54.112-12.757 58.054-11.45 70.143 3.637 33.793 38.395 30.266 39.336 30.676h521.855c.373-.125 45.838 3.336 39.02-44.918z" fill="#6C7D87"/><path d="m183.103 888.94 37.232-203.898c-.516 2.477 2.764-27.274 30.752-45.897-31.258 11.076-21.57 6.644-31.179 10.763-18.139 8.191-32.206 22.11-39.142 41.724-2.775 7.877-.975.952-28.98 141.405-10.45 54.112-12.756 58.059-11.45 70.143 3.636 33.793 38.395 30.267 39.336 30.677h42.448c-29.95.001-42.891-17.513-39.017-44.917z" fill="#566A75"/><path d="M256.494 933.858H179.67c-.984-.43-40.602 3.55-39.611-37.75.215-8.807 1.318-9.178 11.725-63.07l.601-3.022h104.11v103.842z" fill="#DD9A5E"/><path d="M193.862 830.018h-41.475l-.602 3.02c-10.444 54.08-11.509 54.25-11.725 63.07-.987 41.163 38.83 37.41 39.612 37.75h42.448c-27.585 0-40.169-14.511-39.612-37.75.066-2.698 1.071-8.34 11.354-66.09z" fill="#D18C54"/><path d="M370.062 541.12c0 105.56 0-12.025.002 71.117h.045v2.541c0 16.89 10.787 31.903 26.802 37.265 25.701 8.606 58.7 9.586 87.33 0 16.016-5.362 26.802-20.373 26.802-37.265v-2.54h.044l.002-71.118c-45.69 24.362-97.21 23.365-141.027 0z" fill="#DD9A5E"/><path d="M412.566 626.35h-.054l-.003-65.102a154.706 154.706 0 0 1-42.448-15.184c0 105.56 0-16.969.001 66.173h.045v2.541c0 16.89 10.787 31.903 26.802 37.265a130.763 130.763 0 0 0 24.966 5.676c-10.794-14.657-9.144-30.247-9.309-31.369z" fill="#D18C54"/><path d="M256.494 788.363a12.734 12.734 0 0 0-12.735 12.735v132.76h25.469v-132.76a12.732 12.732 0 0 0-12.734-12.735z" fill="#566A75"/><path d="M852.85 933.858H440.575c-17.202 0-31.146-13.944-31.146-31.146 0-9.858 7.992-17.85 17.85-17.85h438.866c9.858 0 17.85 7.992 17.85 17.85 0 17.202-13.944 31.146-31.145 31.146z" fill="#C6C6C6"/><path d="M489.654 902.712c0-9.858 7.992-17.85 17.85-17.85H427.28c-9.858 0-17.85 7.992-17.85 17.85v.002c0 17.201 13.944 31.146 31.146 31.146h80.223c-17.2-.002-31.144-13.946-31.144-31.148z" fill="#B7B7B7"/><path d="M825.845 612.237H467.58c-11.206 0-20.376 9.17-20.376 20.375v231.875c0 11.206 9.17 20.375 20.376 20.375h358.265c11.206 0 20.375-9.17 20.375-20.375V632.612c0-11.206-9.17-20.375-20.375-20.375z" fill="#EDEDED"/><path d="M489.654 864.487V632.612c0-11.206 9.169-20.375 20.375-20.375h-42.448c-11.206 0-20.375 9.17-20.375 20.375v231.875c0 11.206 9.17 20.375 20.375 20.375h42.448c-11.206 0-20.375-9.17-20.375-20.375zM617.289 748.545a29.43 29.43 0 1 0 58.861 0 29.43 29.43 0 1 0-58.861 0Z" fill="#DADADA"/><path d="M646.726 719.143c-22.44-.037-36.896 24.388-25.502 44.122 11.4 19.742 39.775 19.42 50.963-.023-22.638-.032-36.772-24.444-25.46-44.1z" fill="#C6C6C6"/><path d="M436.737 90.326c-109.686.419-202.289 89.961-202.289 203.722v77.207H641.95V255.752c0-78.892-48.537-97.066-48.537-97.066-60.36-74.426-156.596-68.362-156.596-68.362" fill="#4C4846"/><path d="M464.262 91.542c-124.31-14.15-225.472 79.675-229.641 194.478-.321 8.254-.105 5.166-.173 85.235h48.537v-77.207c0-105.389 79.777-191.366 181.277-202.506z" fill="#3D3938"/><path d="M284.633 347.01c-25.556-9.106-53.3 7.83-53.3 32.539 0 24.703 27.74 41.647 53.3 32.538V347.01zm307.133 0c25.556-9.106 53.299 7.83 53.299 32.539 0 24.703-27.74 41.647-53.3 32.538V347.01z" fill="#DD9A5E"/><path d="M235.066 364.587c-14.929 28.34 16.503 59.283 49.567 47.502v-29.925c-19.283 6.869-40.843-1.012-49.567-17.577zm356.7 17.577v29.925c33.062 11.781 64.494-19.16 49.566-47.502-6.242 11.855-30.277 24.449-49.566 17.577z" fill="#D18C54"/><path d="M586.41 282.534c3.958.383 7.003 3.667 7.003 7.643 0 130.68.086 120.815-.219 126.89-2.013 39.747-19.012 76.243-46.66 103.218-96.884 94.464-258.554 27.471-263.417-105.033-.228-5.842-.132-73.527-.132-73.336 0-30.432 27.008-53.652 57.13-49.303 47.439 6.847 116.684 4.187 177.104-47.46 6.208-5.306 15.63-3.592 19.596 3.549 7.486 13.482 22.372 31.205 49.595 33.832z" fill="#EDAE6B"/><path d="M325.586 415.252c-.194-5.01-.153-96.697-.137-122.598-23.692 3.555-42.462 23.895-42.462 49.262 0-.19-.096 67.494.131 73.336 3.585 97.696 92.414 159.763 177.669 147.776-70.002-9.679-132.213-66.348-135.201-147.776z" fill="#DD9A5E"/></svg>